<?xml version="1.0" encoding="iso-8859-1"?>
<!-- Generator: Adobe Illustrator 19.0.0, SVG Export Plug-In . SVG Version: 6.00 Build 0)  -->
<svg version="1.1" id="Layer_1" xmlns="http://www.w3.org/2000/svg" xmlns:xlink="http://www.w3.org/1999/xlink" x="0px" y="0px"
	 viewBox="0 0 512 512" style="enable-background:new 0 0 512 512;" xml:space="preserve">
<g transform="translate(0 1)">
	<path style="fill:#FFE100;" d="M405.109,435.547l-8.982,8.982c-77.249,77.249-202.105,77.249-279.354,0l-8.982-8.982
		c-77.249-77.249-77.249-203.003-0.898-279.354L256,7.982l149.109,147.312C482.358,232.544,482.358,358.298,405.109,435.547"/>
	<path style="fill:#FFA800;" d="M405.109,156.193L256,7.982l-13.474,13.474l135.635,134.737c77.249,77.249,77.249,202.105,0,279.354
		l-8.982,8.982c-35.032,35.032-79.944,53.895-126.653,57.488c54.793,3.593,111.382-15.27,153.6-57.488l8.982-8.982
		C481.46,358.298,481.46,233.442,405.109,156.193"/>
	<path style="fill:#FFFFFF;" d="M102.4,156.193L251.509,7.982l13.474,13.474L129.347,156.193
		c-76.351,76.351-76.351,202.105,0,279.354l8.982,8.982c35.032,35.032,79.944,53.895,126.653,57.488
		c-54.793,3.593-111.382-15.27-153.6-57.488l-8.982-8.982C25.151,358.298,25.151,232.544,102.4,156.193"/>
	<path d="M256,511c-54.793,0-106.891-21.558-146.414-60.182l-8.982-8.982c-80.842-80.842-80.842-211.986,0-291.93L249.712,1.695
		c3.593-3.593,8.982-3.593,12.575,0l149.109,147.312c80.842,80.842,80.842,211.986,0,291.93l-8.982,8.982
		C362.891,489.442,311.691,511,256,511z M256,20.558L113.179,162.481c-72.758,72.758-72.758,193.123,0,266.779l8.982,8.982
		c35.93,35.93,82.639,55.691,133.839,55.691s97.909-19.761,133.839-55.691l8.982-8.982c73.656-73.656,73.656-193.123,0-266.779
		L256,20.558z"/>
	<path d="M256,466.088c-43.116,0-83.537-17.067-114.077-47.607l-8.982-8.982c-3.593-3.593-3.593-8.982,0-12.575
		c3.593-3.593,8.982-3.593,12.575,0l8.982,8.982c26.947,26.947,62.877,42.218,101.502,42.218s74.554-15.27,101.502-42.218
		l8.982-8.982c3.593-3.593,8.982-3.593,12.575,0c3.593,3.593,3.593,8.982,0,12.575l-8.982,8.982
		C339.537,449.021,299.116,466.088,256,466.088z"/>
</g>
<g>
</g>
<g>
</g>
<g>
</g>
<g>
</g>
<g>
</g>
<g>
</g>
<g>
</g>
<g>
</g>
<g>
</g>
<g>
</g>
<g>
</g>
<g>
</g>
<g>
</g>
<g>
</g>
<g>
</g>
</svg>
